<svg xmlns="http://www.w3.org/2000/svg" fill="none" viewBox="0 0 367 347" height="347" width="367">
<g filter="url(#filter0_f_330_19324)" style="mix-blend-mode:luminosity">
<ellipse fill="url(#paint0_linear_330_19324)" ry="7.96706" rx="54.8842" cy="322.134" cx="255.839"></ellipse>
</g>
<g filter="url(#filter1_f_330_19324)" style="mix-blend-mode:luminosity">
<ellipse fill="url(#paint1_linear_330_19324)" ry="7.96706" rx="54.8842" cy="322.133" cx="149.61"></ellipse>
</g>
<g clip-path="url(#clip0_330_19324)">
<path fill="#233117" d="M364.27 204.103C364.27 204.103 360.722 208.856 358.594 209.637C356.466 210.417 354.196 209.779 354.196 209.779L354.054 209.85C353.628 208.431 353.203 207.012 352.706 205.522L352.919 205.451C352.919 205.451 354.054 202.826 357.601 202.259C361.077 201.62 364.27 204.103 364.27 204.103Z"></path>
<path fill="#233117" d="M360.51 183.246C360.51 183.246 358.808 189.347 354.409 192.327C352.707 193.462 350.579 193.817 348.238 194.101L348.025 194.242C347.173 192.54 346.322 190.837 345.4 189.206L345.542 189.135C346.89 186.51 348.876 184.949 350.933 184.027C355.474 182.04 360.51 183.246 360.51 183.246Z"></path>
<path fill="#233117" d="M116.826 112.729L117.039 112.8C116.046 115.141 115.194 117.269 114.414 119.326C104.766 120.532 102.354 110.884 102.354 110.884C102.354 110.884 107.817 107.763 111.718 108.543C115.691 109.395 116.826 112.729 116.826 112.729Z"></path>
<path fill="#233117" d="M309.716 103.366C310.496 104.856 305.389 112.73 300.564 114.504C299.217 115 294.463 114.787 294.463 114.787L294.18 114.929C293.612 113.369 292.903 111.808 292.193 110.247L292.69 110.034C292.335 109.609 294.038 106.133 296.734 104.998C299.429 103.862 308.936 101.876 309.716 103.366Z"></path>
<path fill="#233117" d="M237.499 175.3H238.421C238.35 182.82 234.59 190.979 228.063 196.796C214.797 208.714 178.546 211.268 162.655 195.022C156.483 188.708 153.716 181.685 153.433 175.3C157.831 158.984 169.678 156.998 179.184 160.332C188.762 163.666 199.828 167.781 212.101 161.822C224.374 155.933 234.306 164.73 237.499 175.3Z"></path>
<path fill="#233117" d="M184.716 115.001C185.213 116.916 185.426 118.832 185.284 120.818C183.794 140.611 158.184 149.479 144.492 136.283C143.003 134.865 141.796 132.878 140.945 130.537C137.469 109.255 166.2 91.9448 184.574 115.001H184.716Z"></path>
<path fill="#233117" d="M256.439 138.482L256.723 138.695C251.686 145.931 241.4 151.961 228.772 147.492C216.428 143.023 213.023 131.459 214.868 121.811L215.364 121.882C219.408 112.021 229.34 104.288 244.521 109.964C259.774 115.639 259.277 133.02 256.439 138.482Z"></path>
<path fill="#76B72D" d="M291.413 240.211C290.49 240.069 286.872 239.431 284.886 238.154C281.339 235.884 281.055 211.551 297.443 201.832C299.642 201.122 302.55 200.697 305.885 200.767C318.583 200.98 337.383 207.436 344.974 224.533L357.388 224.462C359.659 239.785 358.382 254.825 353.628 266.247C340.22 298.667 318.512 299.66 303.331 292.85C298.152 290.509 291.909 285.401 292.76 277.172C291.696 276.108 290.987 274.831 290.49 273.412C288.504 268.02 289.639 260.997 289.781 260.358C289.639 260.288 289.568 260.146 289.497 260.075C286.801 257.663 286.305 246.88 291.413 240.211Z"></path>
<path fill="#76B72D" d="M357.246 224.463L344.831 224.534C337.311 207.437 318.441 200.981 305.742 200.768V200.485C304.323 185.8 310.637 164.659 313.688 159.338C314.468 159.693 315.178 160.048 315.958 160.403C328.586 166.574 338.376 176.932 345.328 189.205C346.25 190.836 347.172 192.539 347.953 194.242C349.726 197.86 351.287 201.62 352.635 205.521C353.131 206.94 353.557 208.359 353.983 209.849C355.472 214.602 356.537 219.568 357.246 224.463Z"></path>
<path fill="#824091" d="M288.93 272.703C283.68 269.936 278.501 265.325 278.501 265.325C276.302 259.153 274.741 252.981 273.677 247.022C264.242 192.894 298.223 148.626 301.983 143.873C302.196 143.589 302.338 143.447 302.338 143.447L314.823 151.109C314.823 151.109 315.817 155.72 316.029 160.473V160.544C315.32 160.19 314.54 159.835 313.759 159.48C310.709 164.801 304.395 185.941 305.814 200.626V200.91C302.48 200.839 299.571 201.265 297.372 201.974C280.984 211.693 281.268 236.026 284.815 238.296C286.801 239.573 290.42 240.212 291.342 240.354C286.234 247.022 286.731 257.805 289.284 260.217C289.355 260.288 289.497 260.359 289.568 260.501C289.426 261.14 288.291 268.163 290.278 273.554C289.923 273.2 289.426 272.916 288.93 272.703Z"></path>
<path fill="#76B72D" d="M140.872 130.607C141.723 132.948 142.929 134.863 144.419 136.353C158.111 149.548 183.721 140.68 185.21 120.888C185.352 118.901 185.139 116.915 184.643 115.07C181.451 103.01 165.914 94.2845 152.435 101.733C139.737 108.828 137.75 121.952 140.872 130.607ZM300.774 143.873H301.98C298.221 148.626 264.24 192.893 273.675 247.022L273.178 247.093C248.065 253.903 202.449 251.42 202.449 251.42C202.449 251.42 202.166 263.197 191.808 262.842C181.451 262.416 180.245 251.42 180.245 251.42C180.245 251.42 137.892 249.931 109.516 239.928C113.346 214.814 116.539 171.327 109.728 133.373V133.231C110.225 133.161 110.509 133.09 110.509 133.09C110.509 133.09 111.502 127.556 114.482 119.469C115.191 117.411 116.113 115.212 117.106 112.942C124.981 94.7101 141.227 69.313 172.938 59.594C180.67 57.2529 189.254 55.7631 198.831 55.5503C200.25 55.5503 201.669 55.5503 203.159 55.5503C225.789 55.9759 243.241 61.3675 256.72 69.3839C275.023 80.238 285.877 95.9161 292.261 110.246C292.971 111.807 293.609 113.439 294.248 114.929C299.356 128.124 300.704 139.545 300.774 143.873ZM153.429 175.371C153.712 181.756 156.479 188.779 162.651 195.093C178.542 211.338 214.722 208.784 228.059 196.866C234.586 191.049 238.275 182.891 238.417 175.371C238.559 167.567 234.728 160.473 226.073 157.352C216.07 153.734 205.642 160.473 195.142 159.906C184.643 159.338 176.343 152.031 166.624 154.656C158.536 156.713 152.932 165.297 153.429 175.371ZM259.557 132.948C262.182 123.796 256.507 106.841 242.248 103.578C232.316 101.308 221.036 107.409 217.134 114.999C216.07 117.057 215.29 119.327 214.864 121.739C213.091 131.387 216.425 142.95 228.769 147.42C241.325 151.96 251.683 145.93 256.72 138.623C258.068 136.85 258.99 134.863 259.557 132.948Z"></path>
<path fill="#76B72D" d="M283.893 304.13C284.886 308.315 292.548 311.508 289.072 318.957C285.525 326.335 223.734 325.696 219.549 317.68C216.002 310.869 215.718 300.938 215.647 298.171C224.728 298.667 263.533 300.157 282.829 292.07L282.9 292.283C282.9 292.212 282.9 299.944 283.893 304.13Z"></path>
<path fill="#935124" d="M211.107 286.465C204.013 286.891 196.848 287.104 189.896 287.104V287.317L188.903 295.971C188.051 296.255 187.2 296.468 186.278 296.681C166.272 301.15 126.119 292.637 116.187 290.438C114.698 290.083 113.917 289.87 113.917 289.87C109.093 280.222 106.823 254.471 106.823 254.471H106.681C107.532 250.853 108.526 245.887 109.448 239.786C137.825 249.859 180.177 251.278 180.177 251.278C180.177 251.278 181.383 262.345 191.74 262.7C202.098 263.125 202.382 251.278 202.382 251.278C202.382 251.278 247.997 253.832 273.11 246.951L273.607 246.88C274.671 252.91 276.232 259.011 278.431 265.183C278.431 265.183 283.61 269.794 288.859 272.561L285.738 290.438C284.816 290.935 283.823 291.431 282.758 291.857C263.462 299.944 224.657 298.454 215.577 297.958C214.371 297.887 213.661 297.816 213.661 297.816L211.107 286.536V286.465Z"></path>
<path fill="#ED3128" d="M245.089 30.7208C251.686 27.5284 261.334 28.2378 264.243 29.1601C267.223 30.0114 272.472 46.4698 269.777 54.5572C266.726 63.4959 257.504 68.8874 256.723 69.3131C243.315 61.2967 225.793 55.9051 203.162 55.4794C201.673 55.4794 200.254 55.4794 198.835 55.4794L198.622 47.1083C198.622 47.1083 191.812 31.8559 194.366 22.7044C194.649 21.6402 195.075 20.6471 195.713 19.7248C203.517 7.9485 220.259 2.62787 224.516 2.91164C228.418 3.12447 244.096 18.0932 245.089 30.7208Z"></path>
<path fill="#568A3E" d="M242.25 103.649C256.509 106.913 262.114 123.868 259.56 133.019C258.992 134.935 258.07 136.85 256.793 138.765L256.509 138.553C259.347 133.09 259.773 115.709 244.591 110.034C229.41 104.359 219.478 112.091 215.434 121.952L214.938 121.881C215.363 119.469 216.144 117.199 217.208 115.142C221.038 107.48 232.318 101.308 242.25 103.649Z"></path>
<path fill="#568A3E" d="M226.073 157.353C234.728 160.474 238.559 167.568 238.417 175.372H237.495C234.373 164.731 224.442 156.005 212.169 161.964C199.896 167.923 188.829 163.808 179.252 160.474C169.745 157.14 157.898 159.197 153.5 175.443C153.003 165.369 158.608 156.785 166.624 154.657C176.343 152.103 184.714 159.339 195.143 159.906C205.642 160.474 216.07 153.735 226.073 157.353Z"></path>
<path fill="#ED3128" d="M198.69 47.1089L198.903 55.48C189.254 55.6928 180.671 57.1117 173.009 59.5237C170.597 57.1117 156.408 41.4335 173.364 17.5262C173.364 17.5262 187.055 14.9723 194.504 22.7049C191.879 31.8564 198.69 47.1089 198.69 47.1089Z"></path>
<path fill="#76B72D" d="M186.276 296.753L186.347 297.037C186.347 297.037 186.347 313.424 185.354 316.688C184.361 319.88 164.355 324.917 140.306 322.789C114.554 320.519 109.092 316.333 109.376 312.502C109.659 308.671 116.753 302.216 116.753 302.216L116.115 290.652V290.51C126.189 292.709 166.271 301.152 186.276 296.753Z"></path>
<path fill="#568A3E" d="M184.717 115.001H184.504C166.131 91.9452 137.399 109.255 140.875 130.537C137.683 121.954 139.74 108.758 152.51 101.664C165.989 94.2153 181.525 103.012 184.717 115.001Z"></path>
<path fill="#824091" d="M109.518 239.787C108.596 245.888 107.603 250.924 106.752 254.471C105.829 258.231 104.978 260.431 104.411 260.714C101.502 262.062 96.0395 263.765 88.9453 258.941C82.5606 248.725 81.7093 226.804 83.1281 207.508C83.8375 197.363 85.1854 187.928 86.6752 181.401C90.2932 165.581 93.6275 148.839 97.1036 141.39C97.813 139.901 98.5224 138.766 99.2319 138.127C102.637 134.935 107.816 133.587 109.731 133.161V133.303C116.542 171.186 113.349 214.673 109.518 239.787Z"></path>
<path fill="#824091" d="M109.518 239.787C108.596 245.888 107.603 250.924 106.752 254.471C105.829 258.231 104.978 260.431 104.411 260.714C101.502 262.062 96.0395 263.765 88.9453 258.941C82.5606 248.725 81.7093 226.804 83.1281 207.508C83.8375 197.363 85.1854 187.928 86.6752 181.401C90.2932 165.581 93.6275 148.839 97.1036 141.39C97.813 139.901 98.5224 138.766 99.2319 138.127C102.637 134.935 107.816 133.587 109.731 133.161V133.303C116.542 171.186 113.349 214.673 109.518 239.787Z"></path>
<path fill="#66D3C0" d="M99.5138 63.3543C106.04 62.7868 111.716 65.1279 111.716 65.1279C111.148 69.3844 107.388 75.2726 103.132 78.4649C101.642 79.6 100.081 80.3804 98.5916 80.7351C91.6393 82.2248 87.17 67.8237 92.9162 65.1279C95.0445 64.1347 97.3146 63.5672 99.5138 63.3543Z"></path>
<path fill="#00B595" d="M93.629 104.004C85.3997 113.084 73.9072 117.341 66.2455 114.29L66.1036 114.432C62.1308 109.183 55.3914 104.359 46.5946 101.379L46.6655 101.166C46.6655 101.166 51.3477 99.9602 52.6246 94.9943C53.8307 90.0284 50.922 84.8496 44.4663 83.5727C43.7569 83.4308 43.1185 83.3599 42.48 83.3599L44.6082 73.5699C45.4595 73.7827 46.3108 73.9246 47.1621 74.1374C56.0298 75.6982 61.4924 72.0092 62.6274 67.1852L63.5497 67.398C70.7148 70.5903 79.9372 65.1988 81.1432 57.4661C81.8526 52.9968 80.7176 49.5207 78.2346 47.3924C78.8731 46.683 79.3697 45.9736 79.8663 45.2642C87.3151 48.7403 95.97 53.7062 99.4462 63.3543C97.247 63.5671 94.9769 64.0637 92.7777 65.1278C87.1023 67.8946 91.5717 82.2248 98.453 80.735C99.9428 80.3803 101.503 79.5999 102.993 78.4649L103.419 78.9615C103.419 89.1061 99.3043 97.6901 93.629 104.004Z"></path>
<path fill="#76B72D" d="M66.1023 114.432L66.2442 114.29C73.8349 117.341 85.3984 113.084 93.6277 104.004C94.9756 106.771 95.685 109.254 96.0397 111.453C97.3166 119.682 93.273 124.364 93.273 124.364L96.9619 141.248L97.1038 141.319C93.6277 148.768 90.2934 165.51 86.6754 181.33C85.1856 187.857 83.8377 197.292 83.1283 207.437H82.7736C27.1553 194.171 22.4022 149.478 24.7433 128.621L25.027 127.84C14.3858 123.797 6.08559 118.831 4.7377 115.567C3.0351 111.382 1.26156 98.4704 3.46075 87.4744C5.09241 79.2452 12.1866 80.3803 18.2876 82.1538L19.0679 82.0829C19.2808 86.836 20.5577 92.2275 23.3954 98.3995V98.5413C27.9356 98.2576 32.2631 98.3995 36.3068 98.967C39.9957 99.4636 43.4719 100.315 46.6642 101.379C55.3901 104.359 62.1295 109.183 66.1023 114.432Z"></path>
<path fill="#DD519D" d="M60.8521 47.3923C60.994 46.6829 60.994 45.9735 60.994 45.335L70.9258 45.0513C73.9763 45.0513 76.4593 45.9026 78.2328 47.3923C80.7158 49.5206 81.8508 52.9967 81.1414 57.4661C79.9354 65.1987 70.713 70.6612 63.5479 67.3979L62.6256 67.1851C63.2641 64.4893 62.5547 61.3679 60.2846 58.743L57.8016 53.7771C57.2341 53.0677 56.5246 52.2873 55.6733 51.6488L56.5956 51.5779C56.5956 51.507 57.7306 48.6693 60.8521 47.3923Z"></path>
<path fill="#DD519D" d="M75.4671 29.4437C81.9937 34.6934 83.3416 39.8721 79.9364 45.3346C79.5108 46.044 78.9432 46.7534 78.3048 47.4629C76.5312 45.9021 74.0483 45.1218 70.9978 45.1218L61.0659 45.4056C61.0659 40.4396 57.5188 38.8789 51.6307 38.3823C51.276 38.3823 50.8503 38.3114 50.4956 38.3114L55.1068 31.9266C56.0291 30.5787 56.9513 29.4437 57.9445 28.5214C63.0523 23.5555 68.9405 24.194 75.4671 29.4437Z"></path>
<path fill="#DD519D" d="M60.2863 58.7439C62.5564 61.4396 63.2658 64.4901 62.6274 67.1859C61.4923 72.01 56.0298 75.6989 47.1621 74.1382C46.2398 73.9963 45.3885 73.7835 44.6082 73.5707C35.031 71.2296 30.9164 66.1218 32.9737 59.5952C33.4703 58.0344 34.3216 56.4028 35.5276 54.7002L39.2166 50.018C40.3517 49.5924 41.4867 49.3086 42.5508 49.0248C48.51 47.7479 52.8374 49.3086 55.6751 51.5787C56.5264 52.2172 57.2358 52.9976 57.8033 53.707L60.2863 58.7439Z"></path>
<path fill="#FEE808" d="M61.065 45.3352C61.065 45.9737 60.994 46.6122 60.9231 47.3926C57.8017 48.6695 56.6666 51.5072 56.6666 51.5072L55.7444 51.5781C52.9067 49.308 48.5792 47.7473 42.6201 49.0242L42.4783 48.5276C41.6979 45.0515 42.4073 42.3557 44.1809 40.5821C45.6706 39.1633 47.8698 38.312 50.5656 38.312C50.9203 38.312 51.275 38.312 51.7007 38.383C57.447 38.8086 61.065 40.3693 61.065 45.3352Z"></path>
<path fill="#DD519D" d="M57.8008 28.4512L57.8717 28.5222C56.8785 29.4444 55.9563 30.5795 55.034 31.9274L50.4228 38.3121C47.727 38.3121 45.5278 39.0925 44.0381 40.5823L39.4978 36.1129C39.4978 36.1129 35.9507 34.9069 31.8361 35.1907L31.7651 34.6232C34.0353 23.4853 49.1459 18.7322 57.8008 28.4512Z"></path>
<path fill="#66D3C0" d="M44.4651 83.5738C50.9208 84.7798 53.9004 90.0295 52.6234 94.9954C51.4174 99.9613 46.6643 101.167 46.6643 101.167L46.5934 101.38C43.401 100.316 39.9248 99.4647 36.2359 98.9682V98.8972C31.4118 91.3774 35.3136 83.29 42.4787 83.29C43.1172 83.361 43.7557 83.4319 44.4651 83.5738Z"></path>
<path fill="#00B595" d="M103.135 78.5357C101.645 79.6708 100.084 80.4511 98.5945 80.8058C91.6422 82.2956 87.1728 67.8944 92.9191 65.1986C95.1183 64.1345 97.3885 63.567 99.5876 63.4251C96.1115 53.777 87.4566 48.8111 80.0077 45.335C79.5821 46.0444 79.0145 46.7538 78.3761 47.4632C80.859 49.5915 81.9941 53.0676 81.2847 57.5369C79.9368 65.1986 70.7144 70.6612 63.5493 67.3978L62.627 67.185C61.4919 72.0091 56.0294 75.698 47.1617 74.1373C46.2395 73.9954 45.3882 73.7826 44.6078 73.5698C35.0307 71.2287 30.9161 66.1209 32.9734 59.5942L32.5477 59.4524C30.7742 59.949 29.1425 59.8071 27.7946 59.3105C27.1561 60.0199 26.4467 60.8003 25.8083 61.5806C22.8287 65.3405 20.062 70.3774 19.2816 76.8331C19.0688 78.4647 18.9979 80.2383 19.1397 82.0828C19.3526 86.8359 20.6295 92.2274 23.4672 98.3994V98.5413C28.0075 98.2575 32.3349 98.3994 36.3786 98.9669V98.896C31.5545 91.3761 35.4563 83.2888 42.6214 83.2888C43.2599 83.2888 43.8984 83.3597 44.6078 83.5016C51.0635 84.7076 54.0431 89.9573 52.7661 94.9232C51.5601 99.8891 46.807 101.095 46.807 101.095L46.7361 101.308C55.5328 104.288 62.2723 109.112 66.245 114.361L66.3869 114.219C73.9777 117.27 85.5412 113.013 93.7704 103.933C99.4458 97.619 103.56 89.0351 103.631 78.9613L103.135 78.5357Z"></path>
<path fill="#DD519D" d="M27.7202 59.3114C21.903 57.1122 19.2072 47.6769 21.6192 42.0725C23.8184 37.0357 28.004 35.4749 31.8348 35.1912C35.8785 34.9074 39.4965 36.1134 39.4965 36.1134L44.1787 40.5828C42.4051 42.3563 41.6957 45.0521 42.4761 48.5282L42.618 49.0248C41.5538 49.2376 40.4188 49.5923 39.2837 50.018L35.5947 54.7002C34.3887 56.4028 33.5374 58.0344 33.0408 59.5951L32.6152 59.4532C30.7707 59.9498 29.139 59.808 27.7202 59.3114Z"></path>
<path fill="#66D3C0" d="M9.20801 63.4268C9.20801 63.4268 16.2312 58.8156 25.7374 61.5823C22.7579 65.3422 19.9911 70.3791 19.2108 76.8348L18.8561 76.7638C9.20801 72.1526 9.20801 63.4268 9.20801 63.4268Z"></path>
<path fill="#005F33" d="M364.27 204.102C364.27 204.102 360.723 208.855 358.595 209.636C356.466 210.416 354.196 209.778 354.196 209.778L354.054 209.849C353.629 208.43 353.203 207.011 352.707 205.521L352.919 205.45C352.919 205.45 354.054 202.825 357.602 202.258C361.078 201.619 364.27 204.102 364.27 204.102Z"></path>
<path fill="#005F33" d="M360.511 183.245C360.511 183.245 358.808 189.346 354.41 192.326C352.707 193.461 350.579 193.816 348.238 194.1L348.025 194.241C347.174 192.539 346.323 190.836 345.4 189.205L345.542 189.134C346.89 186.509 348.877 184.948 350.934 184.026C355.474 182.039 360.511 183.245 360.511 183.245Z"></path>
<path fill="#005F33" d="M116.826 112.728L117.039 112.799C116.046 115.14 115.194 117.269 114.414 119.326C104.766 120.532 102.354 110.884 102.354 110.884C102.354 110.884 107.817 107.762 111.718 108.543C115.691 109.394 116.826 112.728 116.826 112.728Z"></path>
<path fill="#005F33" d="M309.716 103.365C310.497 104.855 305.389 112.73 300.565 114.503C299.217 115 294.464 114.787 294.464 114.787L294.18 114.929C293.613 113.368 292.903 111.807 292.194 110.247L292.69 110.034C292.336 109.608 294.038 106.132 296.734 104.997C299.43 103.862 308.936 101.876 309.716 103.365Z"></path>
<path fill="#005F33" d="M237.499 175.3H238.421C238.35 182.82 234.59 190.978 228.063 196.795C214.797 208.714 178.546 211.267 162.655 195.022C156.483 188.708 153.716 181.685 153.433 175.3C157.831 158.983 169.678 156.997 179.184 160.331C188.762 163.666 199.828 167.78 212.101 161.821C224.374 155.933 234.306 164.73 237.499 175.3Z"></path>
<path fill="#005F33" d="M184.716 115C185.213 116.916 185.426 118.831 185.284 120.818C183.794 140.61 158.184 149.478 144.492 136.283C143.003 134.864 141.796 132.878 140.945 130.537C137.469 109.254 166.2 91.9443 184.574 115H184.716Z"></path>
<path fill="#005F33" d="M256.439 138.481L256.723 138.694C251.686 145.93 241.4 151.96 228.772 147.491C216.428 143.022 213.023 131.458 214.868 121.81L215.364 121.881C219.408 112.02 229.34 104.287 244.521 109.963C259.774 115.638 259.277 133.019 256.439 138.481Z"></path>
<path fill="#568A3E" d="M358.381 233.188C354.834 251.633 340.646 254.258 328.089 255.393C308.367 257.167 288.575 253.478 287.439 253.336C287.51 256.457 288.22 259.082 289.284 260.146C289.355 260.217 289.497 260.288 289.568 260.43C289.426 261.069 288.291 268.092 290.277 273.483C290.774 274.902 291.554 276.179 292.547 277.243C291.696 285.473 297.939 290.651 303.118 292.921C318.299 299.732 340.007 298.81 353.415 266.318C355.402 261.778 357.601 238.58 358.381 233.188Z"></path>
<path fill="#692F73" d="M284.889 238.155C284.747 238.084 284.676 237.942 284.534 237.8C284.463 237.8 284.321 237.8 284.25 237.8C285.385 238.51 279.001 239.148 278.149 236.452C276.872 232.125 277.298 221.555 279.072 207.224C282.831 176.223 302.908 147.633 305.036 144.937L313.691 150.258C302.199 166.646 297.162 186.155 295.104 203.393C295.885 202.826 296.665 202.258 297.516 201.762C299.716 201.052 302.624 200.627 305.958 200.698V200.414C304.54 185.729 310.853 164.588 313.904 159.268C314.684 159.622 315.394 159.977 316.174 160.332V160.261C315.961 155.508 314.968 150.897 314.968 150.897L302.482 143.235C302.482 143.235 302.34 143.377 302.128 143.661C298.368 148.414 264.387 192.681 273.822 246.81C274.886 252.84 276.447 258.941 278.646 265.113C278.646 265.113 283.825 269.724 289.074 272.491C289.571 272.774 290.067 272.987 290.493 273.2C288.507 267.809 289.642 260.785 289.784 260.147C289.642 260.076 289.571 259.934 289.5 259.863C286.946 257.451 286.449 246.668 291.557 239.999C290.493 240.07 286.875 239.432 284.889 238.155Z"></path>
<path fill="#568A3E" d="M251.827 250.569C262.043 249.576 264.88 248.724 273.252 247.022L273.748 246.951C264.313 192.822 298.294 148.555 302.054 143.802H300.848C300.777 139.545 299.358 128.124 294.25 114.857C293.683 113.297 292.973 111.736 292.264 110.175C287.511 99.534 280.275 88.1124 269.279 78.4644L265.093 79.8832C289.213 109.892 277.934 185.019 251.827 250.569Z"></path>
<path fill="#568A3E" d="M201.105 65.6235C211.037 67.468 240.265 70.6604 240.265 70.6604C240.265 70.6604 264.882 83.1461 272.189 81.1598C267.719 76.8323 262.611 72.8596 256.723 69.3834C243.315 61.367 225.793 55.9755 203.162 55.5498C201.672 55.5498 200.254 55.5498 198.835 55.5498C189.187 55.7626 185.569 56.2592 177.836 58.6003C177.623 58.6003 179.964 61.7217 201.105 65.6235Z"></path>
<path fill="#568A3E" d="M289.001 318.887C292.548 311.509 284.815 308.246 283.822 304.06C282.829 299.875 282.829 292.142 282.829 292.142L282.758 291.929C263.462 300.017 224.657 298.527 215.576 298.03C215.576 300.797 215.86 310.445 219.265 317.255C228.417 306.543 281.197 301.01 289.001 318.887Z"></path>
<path fill="#693718" d="M109.519 239.786C108.596 245.887 107.603 250.923 106.752 254.471H106.894C106.894 254.471 107.319 259.224 108.171 265.396C113.137 258.514 115.123 248.299 115.832 241.772C113.633 241.204 111.576 240.495 109.519 239.786Z"></path>
<path fill="#693718" d="M225.792 285.899L211.178 287.034L213.661 297.959C213.661 297.959 214.37 298.03 215.576 298.101C217.775 298.243 221.606 298.385 226.501 298.456L225.792 285.899Z"></path>
<path fill="#693718" d="M278.503 265.324C276.304 259.153 274.743 252.981 273.679 247.021L273.182 247.092C268.146 248.511 262.187 249.504 256.015 250.214L253.603 297.816C264.386 296.964 275.098 295.262 282.831 292.069C283.895 291.644 284.888 291.147 285.81 290.651L288.932 272.773C283.682 269.865 278.503 265.324 278.503 265.324Z"></path>
<path fill="#693718" d="M186.277 296.753C187.2 296.54 188.051 296.327 188.902 296.043L189.895 287.388V287.317L162.157 285.118L167.762 298.03C176.275 298.597 180.105 298.1 186.277 296.753Z"></path>
<path fill="#A01D21" d="M256.437 69.4549C256.437 69.4549 262.254 66.972 268.142 59.0975C240.688 57.182 251.187 29.8695 246.079 30.0823C245.512 35.9705 241.61 43.0646 241.61 43.0646C216.851 62.5027 195.427 36.2542 195.427 36.2542C194.647 37.8859 196.988 42.8518 196.988 42.8518C188.687 53.2093 168.469 51.2229 168.469 51.2229L168.327 51.2939C169.462 56.047 171.378 58.8137 171.378 58.8137L172.3 59.665C180.884 56.9692 193.228 55.0538 202.805 55.1957C237.283 55.8341 256.437 69.4549 256.437 69.4549Z"></path>
<path fill="#568A3E" d="M116.26 302.712C133.428 301.435 168.828 312.431 178.547 320.163C182.591 319.028 185.074 317.751 185.428 316.687C186.422 313.495 186.422 297.036 186.422 297.036L186.351 296.753C166.345 301.222 126.192 292.709 116.26 290.51V290.652L116.899 302.215C116.828 302.144 116.615 302.357 116.26 302.712Z"></path>
<path fill="#692F73" d="M83.3427 233.188C82.9171 245.603 86.8189 255.606 88.9471 258.94C96.0413 263.764 101.504 262.061 104.412 260.714C104.98 260.43 105.76 258.231 106.753 254.471C107.605 250.853 108.598 245.887 109.52 239.786C113.351 214.672 116.543 171.185 109.733 133.231V133.089C108.882 133.302 107.321 133.657 105.618 134.295C105.831 151.818 111.01 200.271 100.936 227.938C97.6729 237.019 90.0822 234.536 83.3427 233.188Z"></path>
<path fill="#568A3E" d="M93.6296 104.003C86.5354 111.877 74.6172 116.134 67.2393 115.212C69.8641 124.931 86.0388 126.562 92.6364 122.306C99.234 118.049 94.9775 106.77 93.6296 104.003Z"></path>
<path fill="#568A3E" d="M83.1277 207.507C83.8371 197.362 84.1918 192.467 84.1918 192.467C30.5599 189.771 31.1274 130.109 31.1274 130.109L24.8846 128.407L24.8136 128.62C22.4016 149.476 27.2256 194.17 82.8439 207.507H83.1277Z"></path>
<path fill="#288473" d="M20.1318 89.2466C20.8413 92.0843 21.9054 95.1348 23.3952 98.3981V98.54C27.9354 98.2562 32.2629 98.3981 36.3065 98.9656V98.8947C35.3843 97.4759 34.8168 96.057 34.4621 94.6382C29.8509 94.3544 24.3883 93.0775 20.1318 89.2466ZM94.6206 80.8755C94.4078 86.9055 88.3778 97.4049 74.8279 96.057C74.8279 96.057 70.5714 97.1211 62.9806 97.7596C60.0011 93.0775 52.765 89.4594 52.765 89.4594L52.4813 90.1689C52.9069 91.6586 52.9778 93.2903 52.5522 94.922C52.0556 96.8374 51.0624 98.2562 49.9983 99.1785C49.9274 99.2494 49.7855 99.3203 49.7145 99.4622C49.5726 99.5332 49.5017 99.675 49.3598 99.746C49.2889 99.8169 49.147 99.8879 49.0761 99.9588C48.9342 100.03 48.7923 100.101 48.7213 100.172C48.6504 100.243 48.5795 100.243 48.5085 100.314C48.3666 100.384 48.2247 100.455 48.1538 100.526C47.3025 100.952 46.735 101.094 46.735 101.094L46.664 101.307C47.0187 101.449 47.3025 101.52 47.5863 101.661C49.2889 102.3 50.9205 102.938 52.4103 103.648C53.1197 104.002 53.9001 104.357 54.6095 104.783C54.6804 104.783 54.7514 104.854 54.7514 104.854C55.4608 105.208 56.0993 105.634 56.7378 106.06C60.6395 108.543 63.8319 111.38 66.1021 114.36L66.2439 114.218C73.8347 117.269 85.3982 113.012 93.6274 103.932C98.8771 98.1143 102.779 90.2398 103.417 81.1593L94.6206 80.8755Z"></path>
<path fill="#288473" d="M102.068 88.8921C102.99 85.7707 103.487 82.5074 103.487 79.0312L103.061 78.5346C101.571 79.6697 100.01 80.4501 98.5206 80.8048C95.612 81.4432 93.1291 79.2441 91.6393 76.3354H91.5684C91.5684 76.3354 95.5411 86.4801 102.068 88.8921Z"></path>
<path fill="#288473" d="M84.1927 69.2418C89.2296 66.1204 92.422 60.0904 94.3374 54.9825C90.2228 50.5132 84.8312 47.6046 79.9362 45.3345C79.5106 46.0439 78.943 46.7533 78.3046 47.4627C80.7875 49.591 81.9226 53.0671 81.2132 57.5365C79.9362 65.1982 70.7138 70.6607 63.5487 67.3973L62.6265 67.1845C61.4914 72.0086 56.0289 75.6975 47.1612 74.1368C46.2389 73.9949 45.3876 73.7821 44.6073 73.5693C35.0301 71.2282 30.9155 66.1204 32.9728 59.5938L32.5472 59.4519C30.7736 59.9485 29.142 59.8066 27.7941 59.31C27.1556 60.0194 26.4462 60.7998 25.8077 61.5801C24.8145 62.8571 25.8786 61.0835 25.0273 62.6443L29.9933 63.6374C29.9933 63.6374 29.9933 74.1368 45.7423 77.3292C61.3495 80.5216 63.9743 71.2282 63.9743 71.2282C63.9743 71.2282 74.4028 75.3428 84.1927 69.2418Z"></path>
<path fill="#231F20" d="M173.014 60.0909C171.524 58.743 170.318 57.2532 169.183 55.6216C168.048 53.9899 167.126 52.2164 166.417 50.3719C165.707 48.5274 165.14 46.612 164.785 44.6965C164.43 42.7102 164.359 40.7238 164.359 38.8084C164.43 36.822 164.714 34.8356 165.14 32.9202C165.636 31.0048 166.133 29.0894 166.913 27.3158C168.403 23.6978 170.389 20.2216 172.66 17.1002C172.801 16.9583 172.943 16.8164 173.156 16.8164C175.072 16.4617 176.987 16.3908 178.902 16.4617C180.818 16.5327 182.733 16.6746 184.649 17.1002C186.564 17.5259 188.409 18.0934 190.111 19.0156C190.963 19.4413 191.814 20.0088 192.594 20.5764C193.375 21.1439 194.084 21.8533 194.722 22.5627C194.864 22.7046 194.864 22.9884 194.722 23.2012C194.581 23.3431 194.297 23.3431 194.084 23.2012C192.807 21.9242 191.246 20.8601 189.615 20.0798C187.983 19.2994 186.209 18.8028 184.365 18.4481C182.591 18.0934 180.747 17.9515 178.902 17.9515C177.058 17.9515 175.213 18.0934 173.44 18.3772L173.937 18.0934C171.737 21.2148 169.822 24.5491 168.474 28.0252L167.977 29.3731L167.552 30.721C167.197 31.6433 167.055 32.5655 166.771 33.4168C166.346 35.2613 166.062 37.1058 165.991 39.0212C165.849 42.7811 166.417 46.541 167.694 50.0881C169.042 53.5642 171.028 56.9694 173.653 59.6652C173.795 59.8071 173.795 60.0909 173.653 60.2328C173.44 60.2328 173.156 60.2328 173.014 60.0909Z"></path>
<path fill="black" d="M198.339 47.2511C195.075 39.7313 190.677 27.5293 194.721 19.7257C197.771 14.8307 202.24 10.9999 207.135 8.09128C211.463 5.46644 216.145 3.40913 221.111 2.345C222.459 2.13218 223.949 1.77747 225.226 2.13218C228.985 3.62195 231.61 6.45962 234.377 9.22635C240.762 16.1786 248.069 26.6071 245.089 36.5389C243.528 41.3629 240.904 45.6904 237.924 49.805C237.782 50.0178 237.498 50.0888 237.286 49.8759C237.073 49.7341 237.002 49.4503 237.215 49.2375C238.563 47.1802 239.84 45.0519 240.975 42.9237C242.606 39.6603 244.167 36.3261 244.309 32.7081C244.309 24.266 238.563 16.6043 233.1 10.5742C231.397 8.8007 229.624 7.0981 227.708 5.67926C226.644 4.89891 225.58 4.18949 224.516 3.90572C223.594 3.83478 222.459 4.0476 221.607 4.26043C211.818 6.60151 201.034 12.5606 195.785 21.3574C192.663 28.7353 196.352 39.8022 198.977 47.0383C199.19 47.322 198.551 47.6768 198.339 47.2511Z"></path>
<path fill="#231F20" d="M244.945 30.3662C246.222 29.7278 247.57 29.2312 248.918 28.8765C250.266 28.5217 251.684 28.238 253.103 28.0252C255.941 27.6704 258.708 27.6704 261.545 27.9542C262.255 28.0252 262.964 28.0961 263.674 28.238C263.815 28.238 264.028 28.3089 264.241 28.3799L264.525 28.4508C264.667 28.5217 264.809 28.5217 264.88 28.5927C265.305 28.8765 265.589 29.1602 265.873 29.444C266.866 30.65 267.434 31.9269 268.072 33.2748C269.207 35.8997 269.987 38.5955 270.555 41.3622C271.123 44.1289 271.477 46.9666 271.335 49.8043C271.264 51.2231 271.122 52.7129 270.697 54.1317C270.271 55.5505 269.704 56.8275 268.994 58.1044C267.575 60.5874 265.731 62.7866 263.674 64.773C261.616 66.6884 259.346 68.391 256.863 69.7389C256.65 69.8808 256.367 69.8098 256.296 69.597C256.154 69.3842 256.225 69.1713 256.438 69.0295C258.708 67.6106 260.907 65.8371 262.822 63.9217C264.738 62.0062 266.44 59.878 267.717 57.466C270.484 52.7838 269.987 47.0375 268.923 41.7169C268.356 39.0211 267.646 36.3963 266.582 33.9133C266.086 32.7073 265.447 31.4304 264.667 30.5081C264.454 30.2953 264.241 30.0825 264.099 30.0115C264.028 30.0115 264.028 30.0115 264.028 29.9406L263.816 29.8696C263.674 29.7987 263.532 29.7987 263.319 29.7278C262.68 29.5859 262.042 29.444 261.333 29.373C258.637 29.0183 255.87 29.0183 253.174 29.2312C251.826 29.373 250.478 29.5859 249.131 29.8696C247.783 30.1534 246.506 30.5791 245.3 31.1466C245.087 31.2175 244.874 31.1466 244.732 30.9338C244.661 30.65 244.732 30.4372 244.945 30.3662Z"></path>
<path fill="#231F20" d="M116.542 112.873C113.775 107.127 107.177 109.113 102.708 111.525L102.992 110.816C103.914 113.866 105.971 116.846 108.951 118.194C110.795 119.045 112.853 119.187 114.839 118.974C115.052 118.974 115.194 119.116 115.194 119.258C115.194 119.4 115.052 119.613 114.91 119.613C113.491 119.826 112.072 119.967 110.654 119.684C109.235 119.471 107.816 118.903 106.681 118.052C104.269 116.42 102.708 113.866 101.857 111.1C101.786 110.816 101.928 110.532 102.141 110.39C103.418 109.681 104.695 109.184 106.042 108.688C110.299 107.056 115.478 107.836 117.18 112.59C117.251 113.015 116.684 113.228 116.542 112.873Z"></path>
<path fill="black" d="M110.086 133.233C114.342 157.069 114.981 181.473 113.704 205.593C112.64 222.194 111.079 238.865 107.39 255.111C106.823 257.097 106.468 259.225 105.333 260.999L105.191 261.141C105.12 261.212 105.049 261.283 104.978 261.354C104.056 261.85 103.134 262.134 102.14 262.418C97.5293 263.766 92.4924 262.276 88.6616 259.58C86.888 257.097 85.9658 254.117 85.0435 251.28C82.7025 242.98 82.064 234.254 81.9221 225.741C81.7802 211.482 82.8443 197.151 85.5401 183.105C87.3846 175.017 89.2291 166.15 91.1445 158.062C92.5634 152.458 93.8403 146.925 96.1104 141.533C98.3096 135.645 104.836 133.233 110.512 132.098L109.731 132.878C115.407 108.119 129.027 84.4249 150.097 69.74C151.871 68.463 153.786 67.3279 155.631 66.1929L159.461 64.1356C161.306 63.1424 163.576 62.2911 165.42 61.3688C166.414 61.0141 168.542 60.2338 169.535 59.8081C171.238 59.0987 174.075 58.3893 175.778 57.8927C208.837 49.8053 249.061 56.7576 273.536 81.4453C289.923 97.9038 299.784 120.818 301.345 143.945C301.345 144.229 301.132 144.442 300.919 144.442C300.635 144.442 300.423 144.229 300.423 143.945C298.72 121.173 288.788 98.6132 272.542 82.4385C256.155 66.051 233.17 57.9636 210.327 56.6157C197.415 55.7644 184.362 56.7576 172.089 60.7304C142.364 70.3075 122.785 95.9175 113.704 124.933C112.853 127.628 112.072 130.466 111.505 133.233C111.434 133.658 111.079 133.942 110.724 134.013C106.539 134.935 100.934 136.638 98.6643 140.54C95.8267 146.144 94.4788 152.458 92.9181 158.559C91.5702 164.092 90.3642 169.626 89.0872 175.159C88.0231 179.983 86.3914 187.007 85.7529 191.831C83.27 209.85 80.7161 242.696 89.6547 258.587L89.4419 258.374C91.8539 260.006 94.5497 261.212 97.4583 261.424C99.7285 261.566 102.07 261.07 104.127 260.148C104.907 258.729 105.475 256.6 105.9 254.827C112.001 226.876 113.633 198.003 112.924 169.413C112.498 157.353 111.434 145.293 109.377 133.446C109.377 132.878 110.015 132.736 110.086 133.233Z"></path>
<path fill="#231F20" d="M109.376 239.29C115.051 241.205 120.869 242.695 126.757 243.972C132.645 245.178 138.533 246.242 144.492 247.093C150.451 247.945 156.41 248.583 162.37 249.222C168.329 249.789 174.359 250.215 180.318 250.499C180.673 250.499 181.027 250.782 181.098 251.208C181.524 253.904 182.659 256.671 184.503 258.657C186.348 260.714 189.044 261.778 191.81 261.92C193.158 261.991 194.577 261.849 195.783 261.353C197.06 260.856 198.124 260.076 198.975 259.012C200.678 256.954 201.529 254.046 201.742 251.279C201.742 250.853 202.168 250.499 202.594 250.57C208.482 250.853 214.37 250.995 220.329 251.066C226.217 251.137 232.176 251.066 238.064 250.853C243.953 250.641 249.841 250.286 255.729 249.647C261.617 249.009 267.434 248.158 273.181 246.668C273.393 246.597 273.677 246.739 273.748 246.952C273.819 247.164 273.677 247.448 273.464 247.448C267.718 249.009 261.83 250.002 255.942 250.711C250.054 251.492 244.094 251.847 238.206 252.13C232.247 252.414 226.359 252.485 220.4 252.556C214.441 252.556 208.553 252.414 202.594 252.13L203.445 251.35C203.374 252.911 203.09 254.4 202.594 255.89C202.097 257.38 201.387 258.799 200.394 260.005C199.401 261.211 198.053 262.204 196.563 262.843C195.074 263.41 193.442 263.623 191.881 263.552C188.831 263.41 185.567 262.133 183.51 259.792C182.446 258.657 181.595 257.309 180.956 255.89C180.318 254.471 179.892 253.053 179.679 251.421L180.46 252.13C174.43 251.847 168.4 251.421 162.441 250.782C156.41 250.215 150.451 249.435 144.492 248.512C138.533 247.59 132.574 246.455 126.686 245.107C120.798 243.688 114.98 242.057 109.305 240.07C109.092 239.999 108.95 239.786 109.021 239.503C108.95 239.361 109.163 239.219 109.376 239.29Z"></path>
<path fill="#231F20" d="M294.535 114.433C297.018 114.291 299.714 114.788 301.842 113.298C303.97 111.95 305.673 110.034 307.092 107.977C307.943 106.7 308.936 105.21 309.149 103.721C309.149 103.65 309.149 103.579 309.149 103.579C309.149 103.579 309.007 103.508 308.794 103.437C305.957 103.011 302.977 103.792 300.14 104.359C298.934 104.643 297.657 104.927 296.522 105.423C294.748 106.416 293.258 108.119 292.833 110.034C292.762 110.247 292.62 110.318 292.407 110.247C291.981 110.105 292.265 109.538 292.265 109.254C292.833 107.268 294.251 105.565 296.025 104.501C297.231 103.863 298.508 103.579 299.785 103.224C302.339 102.586 304.893 102.089 307.588 102.018C308.369 102.089 309.149 102.018 309.859 102.586C311.277 103.933 308.794 107.339 307.943 108.616C305.957 111.24 303.545 113.936 300.281 114.929C298.295 115.284 296.309 115.071 294.322 114.929C294.039 115.071 294.11 114.433 294.535 114.433Z"></path>
<path fill="#231F20" d="M201.459 87.6884C198.054 106.062 195.358 124.649 195.146 143.378C195.146 143.52 195.004 143.661 194.862 143.59C194.72 143.59 194.649 143.449 194.649 143.378C194.365 129.331 195.926 115.214 198.267 101.38C199.047 96.769 199.97 92.1577 201.034 87.6175C201.034 87.4756 201.176 87.4046 201.317 87.4756C201.388 87.4756 201.459 87.6175 201.459 87.6884Z"></path>
<path fill="#231F20" d="M136.761 89.8866C126.616 100.812 117.749 121.881 115.549 136.637C115.549 136.779 115.407 136.85 115.266 136.85C115.124 136.85 115.053 136.708 115.053 136.566C116.613 123.584 121.721 111.098 128.39 99.8894C130.66 96.2005 133.214 92.5824 136.406 89.5319C136.69 89.3191 137.045 89.6738 136.761 89.8866Z"></path>
<path fill="#231F20" d="M193.798 209.068C193.727 209.565 193.727 210.203 193.656 210.771C193.23 219.993 193.159 230.422 192.734 239.644C192.734 239.786 192.592 239.857 192.45 239.857C192.308 239.857 192.237 239.715 192.237 239.573C192.237 229.925 192.166 220.277 193.088 210.629C193.159 209.991 193.23 209.281 193.443 208.714C193.656 208.43 194.153 208.856 193.798 209.068Z"></path>
<path fill="#231F20" d="M179.325 159.977C184.504 161.751 189.824 163.241 195.287 163.595C200.678 163.95 206.212 163.241 211.32 161.538C211.958 161.325 212.668 161.112 213.306 160.899C214.015 160.687 214.654 160.545 215.363 160.403C216.782 160.119 218.201 160.048 219.62 160.048C222.457 160.119 225.295 160.829 227.849 162.106C230.403 163.453 232.602 165.298 234.376 167.568C236.149 169.838 237.426 172.392 238.207 175.159V175.23L238.703 177.926C238.703 177.996 238.703 178.138 238.703 178.209V178.28V178.422V178.564C238.703 178.635 238.703 178.777 238.703 178.777L237.213 178.848C237.852 174.307 237.355 169.483 235.014 165.511C233.879 163.524 232.318 161.822 230.474 160.545C228.629 159.197 226.501 158.275 224.302 157.707C222.103 157.14 219.762 157.069 217.492 157.211C215.15 157.423 212.88 157.849 210.539 158.346C205.928 159.339 201.246 160.687 196.28 160.687C193.797 160.687 191.385 160.261 189.044 159.623C186.703 158.984 184.433 158.204 182.234 157.423C179.963 156.643 177.764 155.863 175.494 155.366C173.224 154.869 170.883 154.657 168.684 154.94C164.143 155.508 160.029 158.346 157.546 162.176C154.992 166.007 153.857 170.76 154.07 175.372L152.864 175.23C153.644 172.463 154.708 169.696 156.269 167.213C157.83 164.73 159.887 162.531 162.37 161.041C164.924 159.481 167.832 158.7 170.741 158.629C173.721 158.487 176.629 158.984 179.325 159.977ZM179.041 160.829C176.416 159.906 173.579 159.41 170.812 159.552C168.045 159.693 165.278 160.474 162.937 161.893C160.596 163.382 158.681 165.44 157.191 167.781C155.772 170.122 154.708 172.818 153.999 175.513C153.928 175.797 153.573 176.01 153.289 175.939C153.006 175.868 152.864 175.655 152.864 175.372C152.58 170.548 153.715 165.511 156.482 161.396C157.83 159.339 159.532 157.494 161.589 156.146C162.583 155.437 163.718 154.869 164.853 154.444C165.988 154.018 167.194 153.734 168.471 153.522C170.954 153.167 173.437 153.38 175.778 153.947C178.19 154.444 180.46 155.295 182.659 156.075C187.128 157.636 191.598 159.197 196.28 159.197C200.891 159.197 205.502 157.92 210.114 156.856C212.455 156.359 214.796 155.863 217.279 155.65C219.691 155.437 222.245 155.508 224.657 156.146C227.069 156.785 229.339 157.849 231.325 159.268C233.312 160.687 235.085 162.602 236.291 164.801C237.568 166.93 238.348 169.342 238.703 171.825C239.058 174.237 239.058 176.719 238.632 179.132C238.561 179.557 238.207 179.841 237.781 179.77C237.426 179.699 237.213 179.486 237.142 179.202C237.071 178.919 237.071 178.706 237.071 178.493C237.071 178.422 237.071 178.28 237.071 178.209C237.071 178.138 237.071 178.067 237.142 177.926V178.28L236.646 175.584V175.655C235.156 170.548 231.751 165.936 227.069 163.453C224.728 162.176 222.103 161.538 219.478 161.467C218.13 161.396 216.853 161.538 215.505 161.751C214.867 161.893 214.228 162.035 213.59 162.176C212.951 162.389 212.313 162.602 211.674 162.744C206.354 164.518 200.678 165.156 195.145 164.659C189.611 164.234 184.22 162.673 179.041 160.829Z"></path>
<path stroke-linejoin="round" stroke-linecap="round" stroke-miterlimit="10" stroke-width="1.24148" stroke="black" fill="black" d="M228.063 196.868C233.667 191.831 237.143 185.163 238.136 178.636C238.065 178.282 237.994 178.069 237.994 178.069L237.498 175.373C234.376 164.732 223.806 157.708 212.172 161.965C199.331 166.647 188.761 163.809 179.255 160.475C169.748 157.141 157.972 159.198 153.574 175.444C153.857 181.829 156.624 188.852 162.796 195.166C178.616 211.34 214.796 208.786 228.063 196.868Z"></path>
<path stroke-linejoin="round" stroke-linecap="round" stroke-miterlimit="10" stroke-width="1.24148" stroke="black" d="M184.505 115C184.505 115 184.647 115.213 184.86 115.638C182.022 103.295 166.202 94.0722 152.51 101.734C139.741 108.828 137.755 122.023 140.876 130.607C137.4 109.325 166.131 91.9439 184.505 115Z"></path>
<path stroke-linejoin="round" stroke-linecap="round" stroke-miterlimit="10" stroke-width="1.24148" stroke="black" fill="black" d="M185.288 120.889C185.43 119.115 185.288 117.341 184.862 115.639C184.649 115.213 184.507 115 184.507 115C166.134 91.9444 137.402 109.254 140.878 130.537C141.73 132.878 142.936 134.864 144.425 136.283C158.188 149.478 183.727 140.61 185.288 120.889Z"></path>
<path stroke-linejoin="round" stroke-linecap="round" stroke-miterlimit="10" stroke-width="1.24148" stroke="black" d="M242.252 103.65C232.32 101.38 221.04 107.481 217.138 115.072C215.79 117.696 214.868 120.747 214.584 124.01C215.081 122.662 215.365 121.953 215.365 121.953C219.409 112.092 229.34 104.359 244.522 110.035C259.703 115.71 259.278 133.091 256.44 138.553C256.44 138.553 255.447 140.043 253.957 142.171C256.724 139.405 258.71 136.141 259.562 133.091C262.186 123.797 256.511 106.913 242.252 103.65Z"></path>
<path stroke-linejoin="round" stroke-linecap="round" stroke-miterlimit="10" stroke-width="1.24148" stroke="black" fill="black" d="M244.593 109.964C229.411 104.288 219.479 112.021 215.436 121.882C215.436 121.882 215.081 122.591 214.655 123.939C213.733 133.091 217.422 143.306 228.915 147.492C239.485 151.323 248.424 147.634 254.028 142.1C255.589 139.972 256.511 138.482 256.511 138.482C259.278 133.02 259.774 115.639 244.593 109.964Z"></path>
<path fill="black" d="M291.625 240.638C289.071 240.212 286.234 239.929 284.106 238.226C283.041 236.878 282.758 235.246 282.474 233.686C282.19 231.628 282.19 229.5 282.261 227.443C282.9 217.085 287.724 206.515 296.875 201.053C301.628 199.421 306.665 199.705 311.56 200.343C321.066 201.762 330.289 205.877 337.241 212.545C340.717 215.879 343.484 219.994 345.328 224.392C345.541 224.96 344.761 225.315 344.477 224.747C342.42 220.561 339.724 216.731 336.248 213.609C326.6 204.6 310.07 199.634 297.939 202.755C291.058 206.799 286.659 214.035 284.744 221.697C283.609 226.45 282.971 231.628 284.318 236.382C284.602 237.375 285.028 237.871 286.021 238.297C287.795 239.148 289.781 239.645 291.696 240C292.122 240 292.051 240.638 291.625 240.638Z"></path>
<path fill="black" d="M289.995 260.36C289.569 265.894 289.498 273.201 294.039 277.102C295.528 278.308 297.515 278.734 299.359 279.089C303.332 279.869 307.447 279.798 311.561 279.727C315.676 279.514 319.791 279.089 323.905 278.521C324.189 278.45 324.402 278.663 324.473 278.947C324.473 279.16 324.331 279.444 324.118 279.444C320.074 280.437 315.889 281.075 311.703 281.43C306.453 281.856 300.991 281.785 295.883 280.224C292.549 279.231 290.208 276.109 289.357 272.917C288.718 270.789 288.576 268.66 288.576 266.532C288.647 264.404 288.86 262.276 289.357 260.218C289.427 259.864 290.066 259.935 289.995 260.36Z"></path>
<path fill="black" d="M323.766 216.448C317.736 215.171 311.493 215.029 305.463 215.88C301.561 216.448 297.588 217.512 295.531 221.201C292.764 225.883 291.204 232.977 293.828 237.943C294.112 238.369 294.041 238.865 293.686 239.149C290.707 241.916 289.146 246.101 288.65 250.216C288.366 252.273 288.366 254.401 288.792 256.459C289.146 258.587 289.927 259.864 292.126 260.644C298.014 263.056 304.682 263.766 310.996 263.34C313.125 263.127 315.253 262.702 317.31 262.063C317.878 261.85 318.161 262.773 317.594 262.985C311.351 265.326 304.399 265.256 297.872 264.05C294.893 263.411 291.629 262.773 289.075 260.928C287.798 259.935 287.302 258.161 287.018 256.813C285.812 250.145 287.444 242.625 292.41 237.73L292.268 238.936C291.062 236.879 290.707 234.609 290.707 232.48C290.778 227.089 292.339 221.485 296.311 217.583C298.794 215.313 302.27 214.745 305.392 214.319C309.577 213.823 313.763 213.894 317.949 214.461C320.006 214.745 322.063 215.1 324.12 215.738C324.333 215.951 324.191 216.59 323.766 216.448Z"></path>
<path fill="#231F20" d="M345.26 188.992C347.743 183.175 354.908 181.401 360.654 182.678C361.009 182.749 361.222 183.104 361.08 183.459C360.584 184.948 360.016 186.296 359.236 187.644C356.682 192.255 353.489 194.313 348.24 194.526C348.027 194.526 347.885 194.384 347.885 194.242C347.885 194.1 348.027 193.887 348.169 193.887C349.588 193.674 351.077 193.391 352.354 192.894C356.327 191.333 358.597 187.006 359.874 183.175L360.3 183.955C358.952 183.672 357.533 183.53 356.185 183.601C352 183.601 347.814 185.587 345.757 189.347C345.615 189.631 345.047 189.347 345.26 188.992Z"></path>
<path fill="#231F20" d="M293.402 237.942C294.466 238.013 295.601 238.084 296.666 238.155C297.73 238.226 298.865 238.297 299.929 238.368L306.455 238.793L319.509 239.574C319.722 239.574 319.934 239.786 319.934 240.07C319.934 240.283 319.722 240.496 319.509 240.496C317.31 240.638 315.11 240.638 312.911 240.638C310.712 240.638 308.513 240.567 306.314 240.425C304.114 240.283 301.915 240.07 299.787 239.857C297.588 239.574 295.46 239.29 293.331 238.793C293.118 238.722 292.977 238.509 292.977 238.297C292.977 238.084 293.189 237.942 293.402 237.942Z"></path>
<path fill="black" d="M290.776 273.981C286.093 271.853 281.766 268.944 277.935 265.539C274.672 256.6 272.473 247.307 271.621 237.801C268.5 203.891 281.057 169.626 301.701 142.952C301.913 142.668 302.339 142.597 302.694 142.81L315.038 150.613C315.18 150.684 315.25 150.826 315.321 150.968C315.96 154.09 316.315 157.211 316.456 160.403C316.456 161.042 315.534 161.042 315.534 160.474C315.321 157.353 314.825 154.302 314.186 151.252L314.47 151.607L301.984 144.016L302.978 143.874C301.346 145.931 299.785 148.13 298.295 150.33C279.141 179.132 268.287 215.028 275.027 249.506C275.949 254.827 277.509 259.935 279.141 265.042L278.999 264.83C280.844 266.461 282.83 268.022 284.816 269.512C286.874 270.931 288.931 272.278 291.201 273.343C291.343 273.413 291.485 273.626 291.343 273.768C291.201 273.981 290.988 274.052 290.776 273.981Z"></path>
<path fill="black" d="M305.462 200.556C304.752 193.462 305.603 186.368 306.88 179.416C308.299 172.463 309.931 165.44 313.123 159.055C313.336 158.701 313.691 158.63 314.045 158.772C322.133 162.319 329.44 167.568 335.399 174.095C355.617 196.3 364.201 231.558 356.469 260.644C348.878 285.615 329.369 306.047 302.127 293.135C296.026 290.156 291.131 283.984 292.195 276.961C292.266 276.322 293.189 276.464 293.118 277.102C292.195 283.7 296.948 289.375 302.624 292.071C317.38 299.023 332.561 295.76 342.848 282.991C350.864 272.917 355.83 260.36 356.894 247.52C359.59 214.035 345.331 175.017 313.336 160.19L314.258 159.907C312.627 162.886 311.562 166.291 310.498 169.626C308.441 176.365 306.951 183.247 306.242 190.199C305.887 193.675 305.745 197.222 306.029 200.698C306.171 200.911 305.532 200.982 305.462 200.556Z"></path>
<path fill="#231F20" d="M352.566 205.308C354.623 200.626 361.008 200.839 364.626 203.606C364.91 203.818 364.981 204.173 364.768 204.457C364.129 205.308 363.42 206.088 362.71 206.869C361.292 208.43 359.589 210.274 357.319 210.345C356.184 210.416 355.12 210.345 354.056 209.99C353.914 209.919 353.772 209.777 353.843 209.565C353.914 209.423 354.056 209.281 354.197 209.352C357.886 210.061 359.518 208.713 361.788 206.018C362.427 205.237 363.136 204.457 363.704 203.606L363.846 204.457C361.433 202.754 357.957 201.832 355.262 203.393C354.339 203.889 353.559 204.599 353.062 205.521C352.92 205.876 352.424 205.663 352.566 205.308Z"></path>
<path fill="black" d="M107.178 254.471C107.888 260.43 108.81 266.389 109.874 272.348C111.009 278.165 112.215 284.195 114.698 289.516L114.131 289.02C132.575 293.063 151.233 296.397 170.174 297.107C176.417 297.249 182.731 297.107 188.761 295.404L188.336 295.901L189.471 287.246C189.542 286.678 190.464 286.749 190.393 287.317L189.613 296.043C189.613 296.327 189.4 296.468 189.187 296.539C172.728 301.292 149.247 297.391 132.433 294.624C126.191 293.489 120.019 292.212 113.847 290.722C113.563 290.651 113.35 290.509 113.279 290.226C111.931 287.388 111.08 284.408 110.442 281.429C109.094 275.541 108.171 269.511 107.533 263.481C107.178 260.501 106.894 257.45 106.682 254.471C106.682 254.258 106.824 254.116 106.965 254.116C107.036 254.187 107.178 254.329 107.178 254.471Z"></path>
<path fill="black" d="M211.462 286.609C212.455 290.368 213.377 294.057 214.299 297.817L213.732 297.321C219.762 297.605 225.863 297.675 231.964 297.605C248.068 297.321 270.982 296.895 285.383 289.872L284.957 290.439C285.525 287.389 286.092 284.338 286.66 281.288C287.227 278.237 287.866 275.187 288.433 272.136C288.504 271.853 288.717 271.711 289.001 271.782C289.214 271.853 289.427 272.066 289.356 272.349C288.433 278.521 287.44 284.622 286.447 290.723C286.376 290.936 286.234 291.149 286.021 291.291C283.255 292.78 280.346 293.916 277.366 294.767C268.499 297.392 259.276 298.385 250.125 299.023C237.923 299.733 225.65 299.591 213.448 298.669C213.164 298.669 212.951 298.456 212.88 298.172C212.1 294.412 211.32 290.652 210.61 286.821C210.752 286.396 211.32 286.254 211.462 286.609Z"></path>
<path fill="black" d="M283.256 292.212C283.469 296.185 283.54 300.299 284.533 304.201C284.675 304.698 284.959 305.265 285.313 305.691C288.435 309.735 292.407 312.927 289.924 318.815C288.577 323.001 277.51 323.781 273.608 324.349C260.626 325.626 232.249 325.768 220.969 320.021C220.118 319.525 219.125 318.744 218.699 317.751C216.854 313.991 216.003 309.806 215.507 305.762C215.223 303.208 215.081 300.725 215.152 298.171C215.152 297.887 215.365 297.675 215.648 297.675C215.932 297.675 216.145 297.887 216.145 298.171C216.358 303.137 216.925 308.174 218.415 312.856C218.841 314.346 219.479 315.765 220.118 317.113C220.472 317.822 221.111 318.248 221.82 318.673C223.878 319.738 226.361 320.376 228.702 320.873C233.597 321.866 238.563 322.362 243.529 322.717C253.46 323.356 263.534 323.356 273.466 322.504C278.219 321.937 283.398 321.653 287.583 319.312C287.867 319.099 288.08 318.886 288.293 318.602C288.435 318.319 288.647 317.68 288.789 317.396C290.492 312.643 286.235 309.593 283.965 305.975C282.901 304.059 282.901 301.86 282.688 299.732C282.546 297.178 282.476 294.695 282.546 292.141C282.546 291.786 283.256 291.716 283.256 292.212Z"></path>
<path fill="black" d="M186.704 297.037C186.775 302.925 186.917 308.884 186.42 314.772C186.278 315.694 186.278 316.9 185.569 317.681C178.971 323.214 158.469 324.349 149.672 324.207C144.919 324.136 140.166 323.711 135.484 323.214C128.39 322.363 121.225 321.512 114.485 318.887C111.647 317.752 107.888 315.482 108.739 311.793C109.945 307.607 113.35 304.557 116.401 301.648L116.188 302.145C116.046 298.314 115.833 294.412 115.762 290.581C115.762 290.297 115.975 290.084 116.188 290.084C116.471 290.084 116.684 290.297 116.684 290.51C116.968 294.341 117.252 298.243 117.536 302.074C117.536 302.286 117.465 302.499 117.323 302.57C114.911 304.982 112.428 307.536 110.867 310.587C109.732 312.644 110.371 314.417 112.286 315.694C119.806 320.589 140.379 321.937 149.814 322.221C159.178 322.363 168.614 321.724 177.694 319.525C179.822 318.958 182.164 318.319 184.079 317.113C184.434 316.83 184.788 316.617 184.859 316.191C185.923 309.877 185.782 303.351 186.136 296.966C185.994 296.611 186.704 296.54 186.704 297.037Z"></path>
<path fill="#231F20" d="M279.569 97.6902C287.798 112.162 293.473 128.408 294.112 145.079C294.112 145.363 293.615 145.434 293.615 145.079C293.544 143.944 293.332 141.532 293.19 140.468C291.842 129.685 288.649 119.186 284.464 109.183C282.832 105.352 281.13 101.592 279.143 97.903C279.072 97.7612 279.143 97.6193 279.214 97.5483C279.356 97.5483 279.498 97.5483 279.569 97.6902Z"></path>
<path fill="#231F20" d="M139.388 280.364C144.283 281.783 149.249 282.989 154.286 283.698L158.045 284.266L161.876 284.691L165.707 285.117L169.538 285.401C179.683 286.181 189.898 286.323 200.114 286.11C210.329 285.826 220.545 285.117 230.619 283.84L238.21 282.776C240.763 282.421 243.246 281.924 245.729 281.499C248.212 281.073 250.695 280.506 253.249 280.009C255.732 279.442 258.215 278.803 260.698 278.165C260.911 278.094 261.195 278.236 261.195 278.519C261.266 278.732 261.124 278.945 260.911 279.016C251.05 281.924 240.976 283.84 230.761 285.259L223.099 286.181L215.437 286.89C212.883 287.103 210.329 287.245 207.776 287.387C206.499 287.458 205.222 287.529 203.945 287.6L200.114 287.742C189.827 288.025 179.612 287.813 169.325 286.89C159.11 285.968 148.894 284.407 139.104 281.144C138.891 281.073 138.749 280.86 138.82 280.648C138.891 280.435 139.104 280.364 139.388 280.364Z"></path>
<path fill="black" d="M96.6087 141.39C95.3317 137.276 94.2676 133.019 93.2744 128.834C92.9197 127.415 92.636 125.996 92.2812 124.648C92.2103 124.364 92.2813 124.08 92.4231 123.868C96.1121 118.902 95.8993 112.091 93.9839 106.487L93.0616 104.004C92.9197 103.791 93.0616 103.436 93.3454 103.365C93.5582 103.295 93.842 103.365 93.9129 103.578C94.5514 104.713 95.2608 106.061 95.6865 107.338C97.9566 113.014 97.8147 120.037 93.9839 125.074L94.1967 124.222C95.4027 129.898 96.4668 135.573 97.3181 141.248C97.3181 141.603 96.7506 141.816 96.6087 141.39Z"></path>
<path fill="black" d="M18.1465 82.5082C11.0524 80.6638 4.73856 80.38 3.9582 89.3896C3.46161 92.6529 3.31972 95.9872 3.39067 99.3214C3.53255 104.642 3.88726 110.105 5.58986 115.141C6.08645 116.135 6.86681 116.915 7.71811 117.695C10.2011 119.753 13.1097 121.455 16.0183 123.016C21.9774 126.066 28.2203 128.478 34.605 130.536C35.1726 130.678 34.9597 131.6 34.3213 131.458C27.7946 129.755 21.3389 127.556 15.2379 124.577C12.1874 123.087 9.13694 121.455 6.44116 119.185C5.44797 118.334 4.31291 117.199 3.74537 115.922C1.90089 110.601 1.47524 104.926 1.4043 99.3924C1.4043 95.9872 1.61712 92.582 2.2556 89.1768C3.1069 82.7211 6.65399 79.3868 13.3225 80.5928C15.0251 80.8766 16.6568 81.3732 18.2884 81.9407C18.7141 81.9407 18.5722 82.5792 18.1465 82.5082Z"></path>
<path fill="black" d="M19.5652 98.6121C36.4493 95.7744 56.4549 100.102 67.0252 114.503C68.444 116.56 69.5791 118.901 70.1466 121.384C70.2175 121.668 70.0757 121.881 69.7919 121.952C69.5791 122.023 69.2953 121.881 69.2244 121.597C68.444 119.327 67.3089 117.199 65.8192 115.283C58.2284 105.706 46.0264 101.095 34.1792 99.5343C29.3551 98.8958 24.4601 98.8958 19.5652 99.1796C19.3523 99.1796 19.2104 99.0377 19.2104 98.8958C19.2814 98.754 19.4233 98.6121 19.5652 98.6121Z"></path>
<path fill="#231F20" d="M36.0229 99.0373C34.8879 97.4056 34.0366 95.4902 33.7528 93.4329C33.469 91.3756 33.7528 89.2473 34.675 87.3319C35.6682 85.4165 37.3708 83.9267 39.4281 83.2173C41.4854 82.4369 43.6846 82.5788 45.671 83.0754C46.6642 83.3592 47.6574 83.7139 48.5796 84.2814C49.0762 84.4942 49.5019 84.8489 49.9275 85.1327C50.3532 85.4874 50.7788 85.8421 51.0626 86.1968C52.5523 87.7575 53.4036 89.8149 53.5455 91.9431C53.6165 94.0714 53.1199 96.1996 51.8429 97.9732C50.566 99.6758 48.7924 100.882 46.8061 101.449C46.5932 101.52 46.4514 101.378 46.3804 101.166C46.3095 100.953 46.4514 100.811 46.5932 100.74H46.6642C48.4377 100.101 49.9984 98.8954 50.9916 97.3347C51.4882 96.5543 51.8429 95.703 52.0558 94.7808C52.2686 93.8585 52.3395 92.9363 52.2686 92.014C52.1976 91.0918 51.9139 90.2405 51.5592 89.3892C51.2045 88.5379 50.7079 87.7575 50.0694 87.1191C49.7856 86.7644 49.4309 86.4806 49.0762 86.1968C48.7215 85.9131 48.3668 85.6293 47.9411 85.4165C47.1608 84.9199 46.2385 84.6361 45.3872 84.3523C44.9616 84.2814 44.465 84.1395 44.0393 84.0686L43.3299 83.9976L42.9752 83.9267H42.6205C42.1949 83.9267 41.6983 83.9267 41.2726 83.9976C40.847 84.0686 40.3504 84.1395 39.9247 84.3523C38.2221 84.9199 36.7323 86.1968 35.881 87.7575C34.9588 89.3892 34.675 91.3046 34.8169 93.1491C34.9588 95.0645 35.5973 96.909 36.5905 98.6116C36.6614 98.7535 36.5905 98.8954 36.5195 98.9663C36.2357 99.1792 36.0939 99.1792 36.0229 99.0373Z"></path>
<path fill="#231F20" d="M73.4816 75.9823C73.7654 76.6917 74.0492 77.3302 74.3329 78.0396C74.5458 78.749 74.7586 79.4584 74.9714 80.1679C75.1133 80.8773 75.3261 81.5867 75.468 82.3671L75.8227 84.5663C76.1774 87.4749 76.3193 90.4544 76.1065 93.434C75.9646 96.4135 75.6099 99.3221 74.9005 102.231C74.1911 105.139 73.2688 107.977 71.5662 110.531C71.4243 110.673 71.2115 110.744 71.0696 110.602C70.9277 110.531 70.8568 110.318 70.9277 110.176C71.5662 108.899 72.1337 107.551 72.5594 106.203L72.8432 105.21L73.1269 104.146C73.3398 103.437 73.4816 102.727 73.6235 102.018C74.1201 99.1802 74.4748 96.2716 74.6167 93.434C74.7586 90.5254 74.7586 87.6167 74.5458 84.7791L74.3329 82.6508C74.262 81.9414 74.1201 81.232 73.9782 80.5226C73.8363 79.8132 73.6945 79.1037 73.5526 78.3943C73.4107 77.6849 73.1979 76.9755 72.985 76.2661C72.985 76.1242 73.056 75.9823 73.1979 75.9823C73.2688 75.8404 73.4107 75.9114 73.4816 75.9823Z"></path>
<path fill="black" d="M66.3872 114.008C70.9275 115.498 75.8225 114.505 80.1499 112.66C88.8758 108.829 95.8281 101.522 99.7298 92.9385C101.716 88.611 102.709 83.8579 102.993 79.1048C102.993 78.5373 103.915 78.5373 103.915 79.1048C104.057 83.9998 103.206 89.0367 101.22 93.577C96.5375 104.928 85.9672 114.718 73.4105 115.853C70.9275 115.995 68.3736 115.64 66.0325 114.647C65.7488 114.434 65.9616 113.866 66.3872 114.008Z"></path>
<path stroke-linejoin="round" stroke-linecap="round" stroke-miterlimit="10" stroke-width="1.24148" stroke="#231F20" d="M92.8485 65.1994C87.1732 67.9661 91.6425 82.2963 98.5238 80.8066C104.412 79.5296 110.939 70.8747 111.648 65.1994C111.719 65.1994 101.503 60.9429 92.8485 65.1994Z"></path>
<path fill="black" d="M80.0781 44.9811C88.8039 47.8897 97.5298 53.9907 100.013 63.2131C100.155 63.7806 99.3743 64.0644 99.0905 63.4969C96.3238 57.3249 91.2869 52.6428 85.6116 49.0957C83.6961 47.8897 81.7807 46.7546 79.7944 45.5486C79.4396 45.4067 79.7234 44.8392 80.0781 44.9811Z"></path>
<path fill="#231F20" d="M28.006 59.382C26.9419 60.7299 25.8068 62.1488 24.8846 63.5676C24.388 64.277 23.9623 65.0574 23.5367 65.7668C23.182 66.5471 22.6854 67.2566 22.4016 68.1079C20.9828 71.2293 20.1315 74.6345 19.8477 78.0397C19.5639 81.4449 19.9186 84.921 20.5571 88.3262L21.1247 90.8802C21.3375 91.7315 21.6212 92.5118 21.905 93.3631L22.2597 94.6401L22.7563 95.8461C23.0401 96.6264 23.3948 97.4777 23.6786 98.329C23.7495 98.5419 23.6786 98.7547 23.4657 98.8256C23.3238 98.8966 23.111 98.8256 23.0401 98.6128C21.4794 95.4204 20.1315 92.1571 19.2802 88.61C18.4289 85.1339 18.0742 81.5158 18.3579 77.8978C18.6417 74.2798 19.6349 70.7327 21.2665 67.5403C22.8273 64.348 25.0974 61.4393 27.6513 59.0273C27.7222 58.9564 27.9351 58.9564 28.006 59.0273C28.0769 59.1692 28.0769 59.3111 28.006 59.382Z"></path>
<path fill="#231F20" d="M18.7851 77.0462C18.1466 76.7624 17.4372 76.4787 16.7987 76.124C16.1602 75.6983 15.5218 75.4145 14.9542 74.918L14.1029 74.2085L13.2516 73.4282C12.9679 73.2153 12.6841 72.9316 12.4713 72.6478C12.2584 72.364 11.9747 72.0803 11.7619 71.7965C10.8396 70.5905 10.0593 69.3136 9.49172 67.8947C8.92419 66.4759 8.56948 65.0571 8.49854 63.4254C8.49854 63.1416 8.64042 62.9288 8.85324 62.7869C10.1302 62.0066 11.4781 61.439 12.8969 61.0134C14.2448 60.5877 15.6636 60.304 17.1534 60.1621C18.5723 60.0202 20.062 60.0202 21.4809 60.1621C22.8997 60.304 24.3185 60.6587 25.6664 61.0843C25.8793 61.1553 25.9502 61.3681 25.8793 61.51C25.8083 61.6519 25.6664 61.7937 25.4536 61.7228C24.1057 61.51 22.7578 61.2262 21.4099 61.2262C20.062 61.1553 18.7141 61.2262 17.3662 61.3681C16.0184 61.5809 14.6705 61.8647 13.3935 62.2903C12.1166 62.716 10.8396 63.2835 9.77549 63.922L10.1302 63.2835C10.2011 64.5605 10.4849 65.9793 10.9815 67.2562C11.4781 68.5332 12.1166 69.8101 12.8969 70.9452C13.1097 71.229 13.3226 71.5127 13.5354 71.7965C13.7482 72.0803 13.961 72.364 14.2448 72.5769L14.9542 73.3572L15.7346 74.0666C16.2312 74.5632 16.8697 74.918 17.3662 75.4145C17.9338 75.8402 18.5723 76.1949 19.1398 76.5496C19.2817 76.6206 19.2817 76.7624 19.2107 76.9043C18.9979 77.1171 18.856 77.1171 18.7851 77.0462Z"></path>
<path fill="#231F20" d="M32.6187 59.8777C30.7033 60.5162 28.5041 60.4453 26.6596 59.523C24.8151 58.6008 23.3963 57.111 22.3321 55.4084C21.268 53.7058 20.6295 51.7904 20.2039 49.875C19.8492 47.9595 19.7782 45.9022 20.2039 43.9159C20.4167 42.9227 20.7714 41.9295 21.268 41.0782C21.7646 40.156 22.2612 39.3047 22.9706 38.5952C23.68 37.8149 24.4604 37.1764 25.3117 36.6089C26.163 36.0413 27.0852 35.6866 28.0784 35.3319C29.9938 34.7644 31.9802 34.5516 33.9666 34.6934C35.9529 34.8353 37.7974 35.19 39.7129 35.8285C39.9257 35.8995 40.0676 36.1832 39.9966 36.396C39.9257 36.6089 39.7129 36.7508 39.5 36.6798C37.7265 36.2542 35.882 35.9704 34.0375 35.8995C32.193 35.8995 30.3485 36.1123 28.6459 36.6798C26.9433 37.2473 25.4536 38.2405 24.3185 39.5884C23.751 40.2269 23.2544 41.0073 22.8287 41.7876C22.4031 42.568 22.1193 43.4193 21.9774 44.2706C21.3389 47.7467 22.0484 51.5776 23.8219 54.699C24.7442 56.2597 25.9502 57.6786 27.4399 58.4589C28.2203 58.8846 29.0716 59.1683 29.9229 59.2393C30.7742 59.3102 31.6964 59.3102 32.6187 59.0974C32.8315 59.0264 33.0443 59.1683 33.1153 59.3812C32.9734 59.594 32.8315 59.8068 32.6187 59.8777Z"></path>
<path fill="#231F20" d="M31.4856 34.5519C32.6916 25.7551 43.0491 20.4345 51.2074 23.4141C53.9032 24.3363 56.3152 26.0389 58.0887 28.2381C58.2306 28.38 58.1597 28.5928 58.0178 28.7347C57.8759 28.8766 57.6631 28.8056 57.5922 28.7347C55.6767 26.8193 53.4066 25.3295 50.8527 24.5491C43.191 22.0662 33.9686 26.7483 32.1241 34.7647C31.9822 35.1194 31.4147 34.9776 31.4856 34.5519Z"></path>
<path fill="#231F20" d="M54.7527 31.715C55.7458 30.0833 56.9518 28.5226 58.4416 27.2457C59.9314 25.9687 61.7759 24.9755 63.7622 24.6208C65.7486 24.2661 67.8769 24.5499 69.7214 25.1884C71.5658 25.8268 73.3394 26.82 74.8292 28.026C76.3899 29.1611 77.8797 30.4381 79.1566 31.9278C80.4336 33.4176 81.5686 35.1202 82.0652 37.1066C82.5618 39.0929 82.4199 41.2212 81.7105 43.0657C81.0011 44.9102 79.7951 46.5418 78.5181 47.8897C78.3762 48.0316 78.0925 48.1025 77.8797 47.8897C77.7378 47.7478 77.6668 47.4641 77.8087 47.3222C78.9438 45.9033 80.0079 44.3426 80.5045 42.64C81.072 40.9374 81.143 39.1639 80.6464 37.4613C80.0788 35.8296 79.0857 34.2689 77.9506 32.921C76.7446 31.5731 75.3258 30.3671 73.836 29.303C72.3462 28.2389 70.7855 27.3166 69.0829 26.6781C67.3803 26.0397 65.6067 25.8268 63.9041 26.0397C62.2015 26.2525 60.5699 27.1038 59.151 28.1679C57.7322 29.303 56.5262 30.6509 55.3911 32.1407C55.2492 32.3535 54.9655 32.3535 54.8236 32.2116C54.6817 32.0697 54.6817 31.8569 54.7527 31.715Z"></path>
<path fill="#231F20" d="M42.1946 48.5983C40.421 42.0717 44.6066 37.4605 51.2042 37.8861C53.9709 38.0989 56.8085 38.3827 59.0787 40.0853C61.4907 41.8588 61.5616 45.1931 60.9941 47.8179C60.9941 47.9598 60.8522 48.0308 60.7103 48.0308C60.5685 48.0308 60.4975 47.8889 60.4975 47.747C60.8522 45.264 60.7813 42.2845 58.5821 40.7238C56.4538 39.234 53.6871 38.9502 51.1332 38.8083C47.2314 38.4536 43.1168 40.3691 42.5493 44.5546C42.3364 45.8316 42.4074 47.1795 42.6202 48.4564C42.7621 48.8111 42.2655 48.8821 42.1946 48.5983Z"></path>
<path fill="#231F20" d="M39.1434 49.7339C45.4572 46.7543 53.9702 47.4637 58.1558 53.5647C58.3686 53.9194 57.872 54.2742 57.6592 53.9904C54.0412 49.8758 48.3658 48.5988 43.0452 49.5211C41.7683 49.7339 40.5623 50.0176 39.3562 50.3724C38.9306 50.4433 38.7887 49.8758 39.1434 49.7339Z"></path>
<path fill="#231F20" d="M56.3126 51.3655C57.5186 47.6056 61.846 45.5483 65.6059 46.4705C65.8188 46.4705 65.8897 46.6834 65.8897 46.8253C65.8897 46.9671 65.6769 47.109 65.535 47.109C62.9811 47.109 60.4272 47.8184 58.5827 49.6629C57.9442 50.2305 57.3767 50.9399 56.951 51.6493C56.6673 52.004 56.1707 51.7202 56.3126 51.3655Z"></path>
<path fill="#231F20" d="M70.9977 44.839C72.7713 44.6971 74.6158 44.9809 76.3184 45.6194C78.021 46.3288 79.5817 47.5348 80.5749 49.0955C81.568 50.6562 82.0646 52.5717 82.1356 54.3452C82.2065 55.2675 82.1356 56.1897 81.9937 57.041C81.9937 57.4667 81.8518 57.9632 81.7099 58.3889C81.639 58.6017 81.639 58.8145 81.568 59.0983L81.3552 59.7368C80.0783 63.2129 77.3115 66.0506 73.9773 67.5404C72.3456 68.3207 70.5011 68.7464 68.7276 68.8173C66.8831 68.8883 65.0386 68.4626 63.4779 67.6823C63.2651 67.6113 63.1941 67.3985 63.336 67.1857C63.407 67.0438 63.6198 66.9728 63.7617 67.0438C66.954 68.2498 70.5011 67.8951 73.4807 66.4053C74.9705 65.625 76.3184 64.6318 77.4534 63.4258C78.5885 62.2197 79.4398 60.8009 80.0073 59.2402C80.5749 57.7504 80.7877 56.0478 80.7167 54.4162C80.6458 52.7845 80.2911 51.1528 79.5107 49.734C78.7304 48.3152 77.4534 47.1801 75.9636 46.4707C74.4739 45.6903 72.7713 45.4066 71.0687 45.2647C70.9268 45.2647 70.7849 45.1228 70.8558 44.9809C70.7849 44.91 70.8558 44.839 70.9977 44.839Z"></path>
<path fill="#231F20" d="M60.4985 58.531C62.1301 60.3046 63.2652 62.6456 63.3361 65.1996C63.4071 67.6825 62.3429 70.2364 60.4985 71.939C58.654 73.7126 56.171 74.6348 53.759 74.9895C52.553 75.2023 51.276 75.2023 50.07 75.2023C49.4316 75.2023 48.864 75.1314 48.2255 75.0604C47.658 74.9895 47.0195 74.9186 46.452 74.7767C44.1109 74.2801 41.7698 73.6416 39.4997 72.7194C37.3005 71.7262 35.1013 70.3783 33.6116 68.321C32.0508 66.3346 31.4833 63.5679 31.9799 61.1559C32.4765 58.7439 33.6825 56.5447 35.1723 54.6292C35.3142 54.4874 35.527 54.4164 35.6689 54.5583C35.8107 54.7002 35.8817 54.913 35.7398 55.0549C34.5338 56.8994 33.4697 59.0276 33.115 61.2268C32.7603 63.426 33.2568 65.6961 34.6757 67.3987C36.0236 69.1013 38.0099 70.3783 40.1382 71.3005C42.2664 72.2228 44.4656 72.7903 46.8067 73.216C49.0768 73.6416 51.347 73.8544 53.6171 73.5707C55.8163 73.2869 58.0155 72.4356 59.6472 71.0168C61.3498 69.5979 62.3429 67.3987 62.3429 65.1996C62.4139 62.9294 61.4916 60.7302 60.0728 58.8857C60.0019 58.7439 60.0019 58.602 60.1438 58.531C60.2856 58.4601 60.4275 58.4601 60.4985 58.531Z"></path>
<path fill="black" d="M25.0974 128.693C22.6145 162.39 38.1507 190.483 70.1454 202.827C72.4155 203.749 75.6788 204.884 78.0199 205.664C79.155 206.019 81.7089 206.728 82.844 207.083C83.1277 207.154 83.2696 207.438 83.1987 207.651C83.1277 207.864 82.9149 208.005 82.6311 208.005C73.8344 206.019 65.1085 203.039 57.234 198.499C41.2012 189.632 29.4249 173.67 25.594 155.721C23.6076 146.854 23.182 137.631 24.388 128.622C24.388 128.409 24.6008 128.338 24.7427 128.338C25.0265 128.338 25.0974 128.48 25.0974 128.693Z"></path>
<path fill="black" d="M224.161 2.84135C224.303 2.84135 224.374 2.84135 224.445 2.84135C228.347 3.05417 244.096 18.0938 245.018 30.6505C248.707 28.877 253.318 28.3094 257.149 28.3094C260.2 28.3094 262.824 28.6641 264.172 29.0188C267.152 29.8701 272.401 46.3286 269.635 54.416C266.584 63.2837 257.362 68.7462 256.581 69.1719C274.884 80.0259 285.739 95.7041 292.123 110.034L292.62 109.821C292.265 109.396 293.968 105.92 296.664 104.785C298.65 103.933 304.254 102.727 307.447 102.727C308.582 102.727 309.433 102.869 309.575 103.295C310.355 104.785 305.247 112.659 300.423 114.433C299.714 114.716 298.153 114.716 296.805 114.716C295.458 114.716 294.323 114.646 294.323 114.646L294.039 114.787C299.217 128.124 300.565 139.546 300.636 143.803L301.417 144.228C301.913 143.59 302.197 143.306 302.197 143.306L314.612 150.968C314.612 150.968 315.676 155.579 315.818 160.261V160.332C328.445 166.504 338.164 176.861 345.188 189.134L345.401 189.063C346.748 186.439 348.735 184.878 350.792 183.956C352.778 183.104 354.907 182.82 356.609 182.82C358.809 182.82 360.369 183.246 360.369 183.246C360.369 183.246 358.667 189.347 354.268 192.327C352.566 193.462 350.437 193.816 348.096 194.1L347.883 194.242C349.657 197.86 351.218 201.691 352.566 205.522L352.778 205.451C352.778 205.451 353.914 202.755 357.461 202.259C357.815 202.188 358.17 202.188 358.525 202.188C361.646 202.188 364.2 204.174 364.2 204.174C364.2 204.174 360.653 208.927 358.525 209.707C357.744 209.991 356.964 210.062 356.255 210.062C355.049 210.062 354.126 209.778 354.126 209.778L353.984 209.849C359.944 229.926 359.731 251.35 353.488 266.39C344.124 289.091 330.645 296.398 318.23 296.398C312.909 296.398 307.73 295.05 303.19 292.993C298.082 290.652 291.769 285.544 292.62 277.315C291.627 276.251 290.846 274.974 290.35 273.555C289.853 273.342 289.357 273.058 288.86 272.846L285.739 290.723C284.816 291.219 283.823 291.716 282.759 292.142L282.83 292.354C282.83 292.354 282.83 300.087 283.823 304.273C284.816 308.458 292.549 311.651 289.002 319.1C287.37 322.576 272.898 324.278 257.575 324.278C240.194 324.278 221.749 322.079 219.479 317.823C215.932 310.941 215.577 301.08 215.577 298.314C214.371 298.243 213.662 298.172 213.662 298.172L211.108 286.892V286.679C204.581 287.105 198.055 287.318 191.599 287.318C191.031 287.318 190.464 287.318 189.896 287.318V287.53L188.903 296.256C188.052 296.54 187.201 296.753 186.278 296.966L186.349 297.249C186.349 297.249 186.349 313.637 185.356 316.9C184.576 319.596 170.458 323.498 151.801 323.498C148.112 323.498 144.281 323.356 140.308 323.001C114.556 320.731 109.094 316.546 109.377 312.715C109.732 308.884 116.755 302.428 116.755 302.428L116.117 290.865V290.723C114.627 290.368 113.847 290.155 113.847 290.155C109.023 280.507 106.753 254.755 106.753 254.755H106.611C105.688 258.515 104.908 260.715 104.341 260.998C102.922 261.637 100.794 262.417 98.2396 262.417C95.6148 262.417 92.4933 261.637 88.8753 259.225C82.5615 249.009 81.6393 227.088 83.0581 207.792H82.7034C27.156 194.171 22.4029 149.478 24.744 128.621L25.0278 127.841C14.3865 123.797 6.0154 118.831 4.66751 115.568C2.89397 111.382 1.19137 98.4708 3.39056 87.4748C4.38374 82.438 7.50518 80.8772 11.1232 80.8772C13.3933 80.8772 15.8763 81.4448 18.2174 82.1542H18.9977C18.9268 80.3097 18.9977 78.5362 19.1396 76.9045L18.7849 76.8336C9.13684 72.0805 9.13684 63.4256 9.13684 63.4256C9.13684 63.4256 13.3224 60.7298 19.4943 60.7298C21.4098 60.7298 23.4671 60.9426 25.6663 61.652C26.3047 60.8007 27.0141 60.0204 27.6526 59.311C21.8354 57.1118 19.1396 47.6765 21.5516 42.0721C23.7508 37.0353 27.9364 35.4745 31.7672 35.1908L31.6963 34.6232C33.1151 27.6709 39.4999 23.2016 46.3103 23.2016C50.354 23.2016 54.5395 24.8333 57.8028 28.4513L57.8738 28.5222C60.2149 26.2521 62.7688 25.117 65.4645 25.117C68.586 25.117 71.9202 26.6068 75.4673 29.4445C81.994 34.6942 83.3419 39.9439 79.9367 45.3354C87.3855 48.8116 96.0404 53.7775 99.5166 63.4256C100.226 63.3546 100.935 63.3546 101.574 63.3546C107.178 63.3546 111.648 65.1991 111.648 65.1991C111.08 69.4556 107.32 75.3438 103.064 78.5362L103.489 79.0328C103.418 89.1065 99.3037 97.6904 93.6284 104.004C99.8713 116.774 93.2737 124.435 93.2737 124.435L96.9627 141.32L97.1045 141.391C97.814 139.901 98.5234 138.766 99.2328 138.127C102.638 134.935 107.817 133.587 109.732 133.161C110.229 133.019 110.513 133.019 110.513 133.019C110.513 133.019 111.506 127.486 114.485 119.399C113.918 119.47 113.35 119.54 112.783 119.54C104.482 119.54 102.354 111.027 102.354 111.027C102.354 111.027 106.753 108.545 110.442 108.545C110.867 108.545 111.293 108.545 111.719 108.686C115.62 109.467 116.755 112.801 116.755 112.801L116.968 112.872C124.843 94.6399 141.088 69.2428 172.799 59.5238C170.387 57.1118 156.199 41.4336 173.154 17.5263C173.154 17.5263 175.353 17.1006 178.404 17.1006C183.086 17.1006 189.825 18.0229 194.224 22.705C194.508 21.6409 194.933 20.5768 195.572 19.7255C203.375 8.23292 219.479 2.84135 224.161 2.84135ZM224.161 0.925922C219.124 0.925922 202.24 6.38844 194.082 18.6614C193.94 18.8742 193.727 19.1579 193.585 19.4417C188.903 15.9656 182.944 15.1143 178.546 15.1143C175.282 15.1143 173.012 15.5399 172.941 15.5399L172.161 15.6818L171.735 16.3203C164.286 26.8906 161.661 37.1771 164.003 46.9671C165.28 52.2168 167.692 56.1186 169.536 58.5306C140.947 68.3915 125.127 90.6672 116.684 109.041C115.691 108.048 114.201 107.126 112.215 106.7C111.719 106.629 111.151 106.558 110.583 106.558C106.398 106.558 101.716 109.183 101.503 109.254L100.226 109.963L100.581 111.382C101.432 114.645 104.766 120.746 111.789 121.314C110.229 125.996 109.377 129.472 108.952 131.317C106.54 131.884 101.503 133.303 98.0268 136.566L95.4729 124.79C97.1045 122.378 100.864 115.071 96.0404 104.288C102.07 97.1229 105.476 88.2552 105.547 79.1037C109.732 75.4857 113.137 69.8103 113.705 65.4119L113.918 63.9222L112.57 63.3546C112.357 63.2837 107.604 61.2973 101.716 61.2973C101.432 61.2973 101.219 61.2973 100.935 61.2973C97.3174 52.7843 89.9394 47.8893 82.7034 44.3423C84.6898 40.0148 84.6898 34.1266 76.8152 27.8128C72.9134 24.6914 69.1535 23.0597 65.6064 23.0597C62.9816 23.0597 60.4277 23.982 58.1576 25.7555C54.8942 22.776 50.8506 21.1443 46.5231 21.1443C38.7905 21.1443 32.051 26.2521 30.2065 33.3463C25.3825 34.1266 21.8354 36.8224 19.9909 41.2208C18.5011 44.7679 18.643 49.5919 20.4166 53.8484C21.3388 55.9767 22.5448 57.7502 24.0346 59.0272C22.6158 58.7434 21.1969 58.6015 19.7781 58.6015C13.0386 58.6015 8.49836 61.5101 8.28554 61.652L7.43424 62.2196V63.2837C7.43424 63.7093 7.57612 72.7189 17.2951 77.9686C17.2242 78.5362 17.2242 79.0328 17.2242 79.6003C15.4507 79.1746 13.3933 78.749 11.336 78.749C6.08635 78.749 2.75209 81.5866 1.68796 86.9073C-0.440291 97.6904 1.04948 111.24 3.10679 116.135C4.88034 120.463 14.2446 125.429 22.9705 128.834C22.1901 136.283 21.6226 154.089 30.4903 171.541C39.9965 190.198 57.0934 202.755 81.2846 208.856C80.5042 221.271 79.8657 247.519 87.5274 259.792L87.7402 260.147L88.095 260.36C91.5711 262.701 95.0472 263.907 98.5234 263.907C100.864 263.907 103.135 263.41 105.476 262.346C105.618 262.275 105.83 262.204 105.972 262.062C107.036 270.575 109.094 284.054 112.428 290.652L112.854 291.432L113.705 291.645C113.705 291.645 113.989 291.716 114.556 291.858L115.053 301.222C112.995 303.209 108.03 308.316 107.675 312.147C107.391 315.34 109.732 317.964 114.556 319.88C119.806 321.937 128.248 323.498 140.308 324.562C144.139 324.917 148.112 325.059 151.942 325.059C160.526 325.059 168.968 324.207 175.85 322.718C186.42 320.376 187.13 317.894 187.413 317.042C188.336 314.063 188.407 302.215 188.477 298.101C188.903 297.959 189.329 297.888 189.683 297.746L190.889 297.391L191.031 296.114L191.812 288.949C197.7 288.949 203.73 288.736 209.689 288.382L211.959 298.243L212.314 299.661L213.733 299.732C213.733 299.732 213.804 299.732 213.875 299.732C214.016 303.918 214.726 312.218 217.918 318.319C218.77 320.022 221.253 322.434 232.674 324.207C239.626 325.271 248.494 325.839 257.717 325.839C265.733 325.839 273.253 325.342 278.857 324.562C288.08 323.143 290.137 321.157 290.917 319.596C293.826 313.566 290.492 309.664 288.08 306.827C287.086 305.621 286.093 304.486 285.88 303.492C285.171 300.442 285.029 295.263 284.958 293.064C285.597 292.78 286.235 292.425 286.803 292.142L287.654 291.716L287.796 290.794L290.208 277.031C290.35 277.244 290.563 277.528 290.704 277.741C290.137 288.169 299.501 293.206 302.481 294.554C307.73 296.895 313.051 298.101 318.301 298.101C329.297 298.101 344.691 292.709 355.332 266.886C361.504 251.918 362.001 231.557 356.68 211.765C357.603 211.765 358.525 211.552 359.305 211.268C361.788 210.346 364.909 206.302 365.832 205.096L366.967 203.535L365.406 202.4C365.264 202.329 362.285 200.059 358.525 200.059C358.028 200.059 357.602 200.13 357.177 200.201C355.616 200.414 354.339 201.053 353.346 201.762C352.566 199.705 351.714 197.647 350.792 195.661C352.353 195.377 354.055 194.881 355.474 193.887C360.369 190.553 362.285 184.027 362.356 183.743L362.923 181.827L360.937 181.331C360.866 181.331 359.092 180.905 356.751 180.905C354.339 180.905 352.069 181.331 350.154 182.182C348.309 182.962 346.748 184.097 345.542 185.587C338.306 173.811 328.8 164.73 317.946 159.126C317.662 154.728 316.74 150.755 316.74 150.542L316.527 149.762L315.818 149.336L303.403 141.674L302.694 141.249C302.268 135.928 300.707 126.918 297.089 116.774C299.785 116.774 300.778 116.561 301.346 116.348C305.744 114.716 310.072 109.112 311.349 105.778C311.916 104.359 311.987 103.366 311.561 102.444C310.71 100.812 308.511 100.812 307.66 100.812C304.396 100.812 298.508 102.089 296.167 103.082C294.677 103.72 293.471 104.785 292.62 105.92C285.029 90.3834 274.246 78.0396 260.483 69.2428C263.888 66.7598 269.422 61.9358 271.763 55.1254C274.104 48.244 271.266 36.4677 268.429 30.9343C267.294 28.806 266.23 27.6 265.024 27.2453C263.321 26.7487 260.412 26.394 257.433 26.394C254.524 26.394 250.551 26.6778 246.862 27.9547C245.444 20.9315 240.549 14.4048 237.569 10.8578C233.596 6.17561 227.921 1.06781 224.8 0.85498C224.445 0.925922 224.303 0.925922 224.161 0.925922Z"></path>
</g>
<defs>
<filter color-interpolation-filters="sRGB" filterUnits="userSpaceOnUse" height="30.8059" width="124.64" y="306.731" x="193.519" id="filter0_f_330_19324">
<feFlood result="BackgroundImageFix" flood-opacity="0"></feFlood>
<feBlend result="shape" in2="BackgroundImageFix" in="SourceGraphic" mode="normal"></feBlend>
<feGaussianBlur result="effect1_foregroundBlur_330_19324" stdDeviation="3.71796"></feGaussianBlur>
</filter>
<filter color-interpolation-filters="sRGB" filterUnits="userSpaceOnUse" height="30.8059" width="124.64" y="306.73" x="87.2897" id="filter1_f_330_19324">
<feFlood result="BackgroundImageFix" flood-opacity="0"></feFlood>
<feBlend result="shape" in2="BackgroundImageFix" in="SourceGraphic" mode="normal"></feBlend>
<feGaussianBlur result="effect1_foregroundBlur_330_19324" stdDeviation="3.71796"></feGaussianBlur>
</filter>
<linearGradient gradientUnits="userSpaceOnUse" y2="326.56" x2="421.377" y1="322.134" x1="200.955" id="paint0_linear_330_19324">
<stop stop-color="#693918"></stop>
<stop stop-color="#BE590E" offset="1"></stop>
</linearGradient>
<linearGradient gradientUnits="userSpaceOnUse" y2="326.559" x2="315.148" y1="322.133" x1="94.7256" id="paint1_linear_330_19324">
<stop stop-color="#693918"></stop>
<stop stop-color="#BE590E" offset="1"></stop>
</linearGradient>
<clipPath id="clip0_330_19324">
<rect transform="translate(0.651855 0.85498)" fill="white" height="349.073" width="366.184"></rect>
</clipPath>
</defs>
</svg>
